# xmcd
#
# Track frame offsets:
#	150
#	14286
#	27697
#	40917
#	57039
#	72520
#	85581
#	99949
#	113174
#	126392
#	144290
#	155148
#	171458
#	193133
#
# Disc length: 2813 seconds
#
# Revision: 1
# Processed by: cddbd v1.5.1PL2 Copyright (c) Steve Scherf et al.
# Submitted via: audiograbber 1.83.01
#
DISCID=c40afb0e
DTITLE=Profil - Mit Dir
DYEAR=2000
DGENRE=Christian Country
TTITLE0=Herr, deine Freundlichkeit
TTITLE1=Mit dir
TTITLE2=Gott hört dein Gebet
TTITLE3=Wahre Wunder
TTITLE4=O kommt und staunt
TTITLE5=Er ist links, er ist rechts
TTITLE6=So frei
TTITLE7=Dies ist der Tag - Ich will einziehn
TTITLE8=Draw me nearer
TTITLE9=Ich muss gehen
TTITLE10=Verzeih mir
TTITLE11=Irgenwann kommt Jesus
TTITLE12=Komm zurück
TTITLE13=Hab keine Angst
EXTD=
EXTT0=
EXTT1=
EXTT2=
EXTT3=
EXTT4=
EXTT5=
EXTT6=
EXTT7=
EXTT8=
EXTT9=
EXTT10=
EXTT11=
EXTT12=
EXTT13=
PLAYORDER=
